<svg id="Capa_1" data-name="Capa 1" xmlns="http://www.w3.org/2000/svg" viewBox="0 0 52 58.67"><defs><style>.cls-1{fill:none;stroke:#333;stroke-linecap:round;stroke-linejoin:round;stroke-width:2px;}</style></defs><g id="Image-files_å_ç_æ_ä_" data-name="Image-files (å¾çæä»¶)"><path id="Vector" class="cls-1" d="M15.62,62.33H59.38A3,3,0,0,0,62.5,59.5V19.83H46.88V5.67H15.62A3,3,0,0,0,12.5,8.5v51A3,3,0,0,0,15.62,62.33Z" transform="translate(-11.5 -4.67)"/><path id="Vector_2" data-name="Vector 2" class="cls-1" d="M46.88,5.67,62.5,19.83" transform="translate(-11.5 -4.67)"/><path id="Vector_3" data-name="Vector 3" class="cls-1" d="M28.12,29.75c3.46,0,6.26-2.54,6.26-5.67s-2.8-5.66-6.26-5.66a6,6,0,0,0-6.24,5.66A6,6,0,0,0,28.12,29.75Z" transform="translate(-11.5 -4.67)"/><path id="Vector_4" data-name="Vector 4" class="cls-1" d="M23.44,39.67V52.42H51.56V29.75L36.7,44.63Z" transform="translate(-11.5 -4.67)"/></g></svg>