<svg xmlns="http://www.w3.org/2000/svg" xmlns:xlink="http://www.w3.org/1999/xlink" viewBox="0 0 557.46 489.22"><defs><style>.cls-1,.cls-5{font-size:133.78px;font-family:FVAlmelo, FV Almelo;}.cls-2{letter-spacing:0em;}.cls-3{letter-spacing:-0.04em;}.cls-4{fill:url(#Degradado_sin_nombre_32);}.cls-5{fill:#fff;}.cls-6{fill:url(#Degradado_sin_nombre_36);}</style><linearGradient id="Degradado_sin_nombre_32" x1="7.86" y1="426.74" x2="264.79" y2="426.74" gradientUnits="userSpaceOnUse"><stop offset="0" stop-color="#7204fe"/><stop offset="1" stop-color="#db00ff"/></linearGradient><linearGradient id="Degradado_sin_nombre_36" x1="141.16" y1="166.28" x2="418.98" y2="166.28" xlink:href="#Degradado_sin_nombre_32"/></defs><g id="Capa_3" data-name="Capa 3"><text class="cls-1" transform="translate(0 475.84) scale(1.07 1)">F<tspan class="cls-2" x="56.05" y="0">E</tspan><tspan class="cls-3" x="113.18" y="0">S</tspan><tspan x="165.89" y="0">TI</tspan></text><path class="cls-4" d="M22.65,391.56A2.4,2.4,0,0,0,22,393.3v24.48c0,1.52.8,2.27,2.43,2.27H43.16A7,7,0,0,1,48.08,422a6.28,6.28,0,0,1,2.08,4.75,6.12,6.12,0,0,1-2.08,4.62,7,7,0,0,1-4.92,1.94H24.44a2.35,2.35,0,0,0-1.79.67,2.38,2.38,0,0,0-.64,1.74V469a6.17,6.17,0,0,1-2.15,4.75,7.22,7.22,0,0,1-5,1.94,7,7,0,0,1-4.93-1.94A6.26,6.26,0,0,1,7.86,469V384.33a6.1,6.1,0,0,1,2.07-4.61,7,7,0,0,1,4.93-1.94H50.3a7,7,0,0,1,4.93,1.94,6.18,6.18,0,0,1,0,9.23,7,7,0,0,1-4.93,1.94H24.44A2.35,2.35,0,0,0,22.65,391.56Z" transform="translate(0 0)"/><path class="cls-4" d="M82.45,391.56a2.26,2.26,0,0,0-.71,1.74v24.48a2.05,2.05,0,0,0,.71,1.67,2.79,2.79,0,0,0,1.86.6H103A7,7,0,0,1,108,422a6.27,6.27,0,0,1,2.07,4.75,6.11,6.11,0,0,1-2.07,4.62A7,7,0,0,1,103,433.3H84.31a2.59,2.59,0,0,0-1.86.67,2.24,2.24,0,0,0-.71,1.74v24.48a2.09,2.09,0,0,0,.71,1.6,2.59,2.59,0,0,0,1.86.67h25.86a7,7,0,0,1,4.93,1.94,6.12,6.12,0,0,1,2.07,4.62,6.26,6.26,0,0,1-2.07,4.75,7,7,0,0,1-4.93,1.94H74.73a7,7,0,0,1-4.93-1.94A6.26,6.26,0,0,1,67.73,469V384.33a6.1,6.1,0,0,1,2.07-4.61,7,7,0,0,1,4.93-1.94h35.44a7,7,0,0,1,4.93,1.94,6.18,6.18,0,0,1,0,9.23,7,7,0,0,1-4.93,1.94H84.31A2.59,2.59,0,0,0,82.45,391.56Z" transform="translate(0 0)"/><path class="cls-4" d="M146.18,392.9a10.54,10.54,0,0,0-4,4.54,9.58,9.58,0,0,0-.86,4,9.85,9.85,0,0,0,1,4.41,18.9,18.9,0,0,0,3,4.95,36.08,36.08,0,0,0,4.57,4.89c1.9,1.73,4.29,3.76,7.14,6.08q1.86,1.48,4.08,3.28a56.47,56.47,0,0,1,4.35,3.95,47.09,47.09,0,0,1,3.93,4.08c1.1,1.29,2.12,2.56,3.08,3.81a25,25,0,0,1,3.28,6,24.21,24.21,0,0,1,2,9.37,21.64,21.64,0,0,1-4.43,13.11,26.2,26.2,0,0,1-11,8.56,26.83,26.83,0,0,1-9.72,1.87,25.5,25.5,0,0,1-14.14-4.15,24,24,0,0,1-9.15-10.3,22.54,22.54,0,0,1-1.86-9.09,6.22,6.22,0,0,1,2.08-4.75,7.23,7.23,0,0,1,9.86,0,6.24,6.24,0,0,1,2.07,4.75,10.3,10.3,0,0,0,1.86,5.75,12.07,12.07,0,0,0,4.85,3.74,12.45,12.45,0,0,0,4.43.81,11.15,11.15,0,0,0,6.15-1.74,11.69,11.69,0,0,0,4-4.55,10.5,10.5,0,0,0,.86-4.15,9.82,9.82,0,0,0-1-4.41,18.94,18.94,0,0,0-2.86-4.82,58.86,58.86,0,0,0-4.65-4.95q-2.78-2.67-7.21-6.15l-5.5-4.62a52.7,52.7,0,0,1-5.22-5,36.66,36.66,0,0,1-8-11.37,24.2,24.2,0,0,1-2-9.36,21.43,21.43,0,0,1,1.14-7,26.43,26.43,0,0,1,3.14-6.29,25.79,25.79,0,0,1,11.15-8.43,24.84,24.84,0,0,1,9.72-1.87,25.68,25.68,0,0,1,14.14,4,25.22,25.22,0,0,1,9.15,10.3,22.89,22.89,0,0,1,1.86,9.23,6.1,6.1,0,0,1-2.07,4.61,7.23,7.23,0,0,1-9.86,0,6.08,6.08,0,0,1-2.08-4.61,10.58,10.58,0,0,0-1.85-5.89,11.9,11.9,0,0,0-5-3.74,11.28,11.28,0,0,0-4.28-.81A11,11,0,0,0,146.18,392.9Z" transform="translate(0 0)"/><path class="cls-4" d="M210.06,475.84a6.83,6.83,0,0,1-4.93-2,6.3,6.3,0,0,1-2.07-4.68v-76a2.28,2.28,0,0,0-.72-1.74,2.6,2.6,0,0,0-1.85-.66H187.2a7,7,0,0,1-4.93-1.94,6.17,6.17,0,0,1,0-9.24,7,7,0,0,1,4.93-1.94h45.58a7,7,0,0,1,4.93,1.94,6.19,6.19,0,0,1,0,9.24,7,7,0,0,1-4.93,1.94H219.63a2.37,2.37,0,0,0-1.78.66,2.41,2.41,0,0,0-.64,1.74v76a6.2,6.2,0,0,1-2.15,4.68A7.07,7.07,0,0,1,210.06,475.84Z" transform="translate(0 0)"/><path class="cls-4" d="M262.72,473.9a7.23,7.23,0,0,1-9.86,0,6.23,6.23,0,0,1-2.08-4.75V384.47a6.1,6.1,0,0,1,2.08-4.62,7.23,7.23,0,0,1,9.86,0,6.12,6.12,0,0,1,2.07,4.62v84.68A6.26,6.26,0,0,1,262.72,473.9Z" transform="translate(0 0)"/><text class="cls-5" transform="translate(272.38 475.84) scale(1.07 1)">GRAM</text></g><g id="Capa_4" data-name="Capa 4"><path class="cls-6" d="M147.07,64.06C202.81-40.18,423.74-7.56,418.9,92.74,413.77,199,304.32,338.82,278.71,332.34,224,318.49,114.59,124.8,147.07,64.06ZM329.3,98.17c-2.21.28-4.41.59-6.62.87-5.29.67-10.59,1.32-15.88,2-3.71.48-7.41,1-11.12,1.48-3.16.4-6.33.71-9.49,1.11-4.81.62-9.62,1.31-14.43,1.94-4.15.54-8.31,1-12.45,1.57-1.77.23-1.76.29-1.88,2q-2.42,34.63-4.84,69.28c-.05.74-.12,1.48-.15,2.23s-.33.81-1,.66a27.7,27.7,0,0,0-16.72,1.51c-8,3.17-12.9,10.85-10.66,18.76a12.61,12.61,0,0,0,5.78,7.78c4.19,2.5,8.72,2.82,13.49,2a28.7,28.7,0,0,0,14.12-6.15c3.63-3.06,6-6.71,6.25-11.41.55-8.73,1.2-17.45,1.81-26.18q1.17-16.71,2.33-33.41c.05-.79.19-1.33,1.19-1.46,3.15-.41,6.29-.88,9.44-1.32l15-2.06,21-2.91,1.76-.25L313,173a2,2,0,0,1-.34.07,4.11,4.11,0,0,1-.47-.07,28.47,28.47,0,0,0-15.66,1.11c-5.42,1.94-9.46,5.25-11.41,10.48a14,14,0,0,0-.16,9.31,12.14,12.14,0,0,0,5.12,6.9,17.34,17.34,0,0,0,11.25,2.63c6.29-.56,11.91-2.47,16.64-6.35,3.75-3.06,6.08-6.8,6.41-11.64q2.89-42.84,5.95-85.65c0-.51,0-1,0-1.62C329.91,98.14,329.6,98.13,329.3,98.17Z" transform="translate(0 0)"/></g></svg>