<?xml version="1.0" encoding="utf-8"?>
<!-- Generator: Adobe Illustrator 25.2.1, SVG Export Plug-In . SVG Version: 6.00 Build 0)  -->
<svg version="1.1" id="Capa_1" xmlns="http://www.w3.org/2000/svg" xmlns:xlink="http://www.w3.org/1999/xlink" x="0px" y="0px"
	 viewBox="0 0 557.5 129.3" style="enable-background:new 0 0 557.5 129.3;" xml:space="preserve">
<style type="text/css">
	.st0{enable-background:new    ;}
	.st1{fill:url(#SVGID_1_);}
	.st2{fill:url(#SVGID_2_);}
	.st3{fill:url(#SVGID_3_);}
	.st4{fill:url(#SVGID_4_);}
	.st5{fill:url(#SVGID_5_);}
	.st6{fill:#FFFFFF;}
</style>
<g class="st0">
	<path d="M22.7,31.6c-0.4,0.4-0.6,1-0.6,1.7v24.5c0,1.5,0.8,2.3,2.4,2.3h18.8c1.9,0,3.6,0.6,4.9,1.9c1.4,1.3,2.1,2.9,2.1,4.8
		c0,1.8-0.7,3.3-2.1,4.6c-1.4,1.3-3,1.9-4.9,1.9H24.5c-0.8,0-1.4,0.2-1.8,0.7c-0.4,0.4-0.6,1-0.6,1.7v33.3c0,1.9-0.7,3.5-2.1,4.8
		c-1.4,1.3-3.1,1.9-5,1.9c-1.9,0-3.6-0.6-4.9-1.9c-1.4-1.3-2.1-2.9-2.1-4.8V24.4c0-1.8,0.7-3.3,2.1-4.6c1.4-1.3,3-1.9,4.9-1.9h35.5
		c1.9,0,3.6,0.6,4.9,1.9c1.4,1.3,2.1,2.8,2.1,4.6c0,1.8-0.7,3.3-2.1,4.6c-1.4,1.3-3,1.9-4.9,1.9H24.5C23.7,31,23.1,31.2,22.7,31.6z"
		/>
</g>
<g class="st0">
	<path d="M82.6,31.6c-0.5,0.4-0.7,1-0.7,1.7v24.5c0,0.7,0.2,1.3,0.7,1.7c0.5,0.4,1.1,0.6,1.9,0.6h18.8c1.9,0,3.6,0.6,4.9,1.9
		c1.4,1.3,2.1,2.9,2.1,4.8c0,1.8-0.7,3.3-2.1,4.6c-1.4,1.3-3,1.9-4.9,1.9H84.5c-0.8,0-1.4,0.2-1.9,0.7c-0.5,0.4-0.7,1-0.7,1.7v24.5
		c0,0.6,0.2,1.2,0.7,1.6c0.5,0.4,1.1,0.7,1.9,0.7h25.9c1.9,0,3.6,0.6,4.9,1.9c1.4,1.3,2.1,2.8,2.1,4.6c0,1.9-0.7,3.5-2.1,4.8
		c-1.4,1.3-3,1.9-4.9,1.9H74.9c-1.9,0-3.6-0.6-4.9-1.9c-1.4-1.3-2.1-2.9-2.1-4.8V24.4c0-1.8,0.7-3.3,2.1-4.6c1.4-1.3,3-1.9,4.9-1.9
		h35.5c1.9,0,3.6,0.6,4.9,1.9c1.4,1.3,2.1,2.8,2.1,4.6c0,1.8-0.7,3.3-2.1,4.6c-1.4,1.3-3,1.9-4.9,1.9H84.5
		C83.7,31,83.1,31.2,82.6,31.6z"/>
</g>
<g class="st0">
	<path d="M146.4,33c-1.8,1.2-3.1,2.7-4,4.5c-0.6,1.2-0.9,2.6-0.9,4c0,1.6,0.3,3.1,1,4.4c0.6,1.5,1.6,3.2,3,4.9
		c1.1,1.5,2.7,3.1,4.6,4.9c1.9,1.7,4.3,3.8,7.2,6.1c1.2,1,2.6,2.1,4.1,3.3c1.5,1.2,2.9,2.5,4.4,3.9c1.5,1.4,2.8,2.8,3.9,4.1
		c1.1,1.3,2.1,2.6,3.1,3.8c1.5,2.1,2.6,4.1,3.3,6c1.3,3.2,2,6.3,2,9.4c0,4.7-1.5,9.1-4.4,13.1c-2.8,3.7-6.4,6.6-11,8.6
		c-3.2,1.2-6.5,1.9-9.7,1.9c-5.2,0-9.9-1.4-14.2-4.1c-4.1-2.6-7.2-6-9.2-10.3c-1.2-2.9-1.9-5.9-1.9-9.1c0-1.9,0.7-3.5,2.1-4.7
		c1.4-1.3,3-1.9,4.9-1.9c1.9,0,3.6,0.6,4.9,1.9c1.4,1.3,2.1,2.9,2.1,4.7c0,2,0.6,3.9,1.9,5.8c1.3,1.7,3,2.9,4.9,3.7
		c1.4,0.5,2.9,0.8,4.4,0.8c2.3,0,4.3-0.6,6.2-1.7c1.8-1.2,3.1-2.8,4-4.5c0.6-1.3,0.9-2.7,0.9-4.1c0-1.6-0.3-3.1-1-4.4
		c-0.6-1.5-1.5-3.1-2.9-4.8c-1.2-1.5-2.8-3.2-4.7-5c-1.9-1.8-4.3-3.8-7.2-6.2c-1.8-1.5-3.6-3.1-5.5-4.6c-1.9-1.6-3.6-3.2-5.2-5
		c-3.7-3.7-6.4-7.5-8-11.4c-1.3-3.2-2-6.3-2-9.4c0-2.4,0.4-4.7,1.1-7c0.8-2.2,1.8-4.3,3.1-6.3c3.1-3.9,6.8-6.7,11.2-8.4
		c3-1.2,6.2-1.9,9.7-1.9c5.2,0,10,1.3,14.2,4c4,2.6,7.1,6,9.2,10.3c1.2,2.9,1.9,5.9,1.9,9.2c0,1.8-0.7,3.3-2.1,4.6
		c-1.4,1.3-3,1.9-4.9,1.9c-1.9,0-3.6-0.6-4.9-1.9c-1.4-1.3-2.1-2.8-2.1-4.6c0-2.1-0.6-4-1.9-5.9c-1.3-1.7-3-2.9-5-3.7
		c-1.3-0.5-2.8-0.8-4.3-0.8C150.4,31.1,148.3,31.7,146.4,33z"/>
</g>
<g class="st0">
	<path d="M210.4,115.9c-1.9,0-3.6-0.7-4.9-2c-1.4-1.3-2.1-2.9-2.1-4.7v-76c0-0.7-0.2-1.3-0.7-1.7c-0.5-0.4-1.1-0.7-1.9-0.7h-13.3
		c-1.9,0-3.6-0.6-4.9-1.9c-1.4-1.3-2.1-2.8-2.1-4.6c0-1.8,0.7-3.3,2.1-4.6c1.4-1.3,3-1.9,4.9-1.9h45.7c1.9,0,3.6,0.6,4.9,1.9
		c1.4,1.3,2.1,2.8,2.1,4.6c0,1.8-0.7,3.3-2.1,4.6c-1.4,1.3-3,1.9-4.9,1.9H220c-0.8,0-1.4,0.2-1.8,0.7c-0.4,0.4-0.6,1-0.6,1.7v76
		c0,1.8-0.7,3.3-2.1,4.7C214,115.3,212.3,115.9,210.4,115.9z"/>
	<path d="M263.2,114c-1.4,1.3-3,1.9-4.9,1.9c-1.9,0-3.6-0.6-4.9-1.9c-1.4-1.3-2.1-2.9-2.1-4.7V24.5c0-1.8,0.7-3.3,2.1-4.6
		c1.4-1.3,3-1.9,4.9-1.9c1.9,0,3.6,0.6,4.9,1.9c1.4,1.3,2.1,2.8,2.1,4.6v84.7C265.2,111.1,264.6,112.7,263.2,114z"/>
</g>
<linearGradient id="SVGID_1_" gradientUnits="userSpaceOnUse" x1="379.7792" y1="-264.8102" x2="636.7092" y2="-264.8102" gradientTransform="matrix(1 0 0 -1 -371.92 -197.9602)">
	<stop  offset="0" style="stop-color:#7204FE"/>
	<stop  offset="1" style="stop-color:#DB00FF"/>
</linearGradient>
<path class="st1" d="M22.6,31.6c-0.4,0.5-0.7,1.1-0.6,1.7v24.5c0,1.5,0.8,2.3,2.4,2.3h18.7c1.8,0,3.6,0.7,4.9,1.9
	c1.3,1.2,2.1,2.9,2.1,4.8c0,1.8-0.8,3.5-2.1,4.6c-1.3,1.3-3.1,2-4.9,1.9H24.4c-0.7,0-1.3,0.2-1.8,0.7c-0.4,0.5-0.7,1.1-0.6,1.7v33.4
	c0,1.8-0.8,3.6-2.1,4.8c-1.4,1.3-3.1,2-5,1.9c-1.8,0-3.6-0.7-4.9-1.9c-1.3-1.2-2.1-2.9-2.1-4.8V24.4c0-1.8,0.7-3.4,2.1-4.6
	c1.3-1.3,3.1-2,4.9-1.9h35.4c1.8,0,3.6,0.7,4.9,1.9c2.5,2.3,2.8,6.2,0.5,8.7c-0.2,0.2-0.3,0.3-0.5,0.5c-1.3,1.3-3.1,2-4.9,1.9H24.4
	C23.8,30.9,23.1,31.2,22.6,31.6z"/>
<linearGradient id="SVGID_2_" gradientUnits="userSpaceOnUse" x1="379.78" y1="-264.7852" x2="636.71" y2="-264.7852" gradientTransform="matrix(1 0 0 -1 -371.92 -197.9602)">
	<stop  offset="0" style="stop-color:#7204FE"/>
	<stop  offset="1" style="stop-color:#DB00FF"/>
</linearGradient>
<path class="st2" d="M82.4,31.6c-0.5,0.5-0.7,1.1-0.7,1.7v24.5c0,0.6,0.2,1.3,0.7,1.7c0.5,0.4,1.2,0.6,1.9,0.6h18.8
	c1.8,0,3.6,0.7,4.9,1.9c1.3,1.2,2.1,2.9,2.1,4.8c0,1.8-0.7,3.5-2.1,4.6c-1.3,1.3-3.1,2-4.9,1.9H84.3c-0.7,0-1.4,0.2-1.9,0.7
	c-0.5,0.4-0.7,1.1-0.7,1.7v24.5c0,0.6,0.3,1.2,0.7,1.6c0.5,0.5,1.2,0.7,1.9,0.7h25.9c1.8,0,3.6,0.7,4.9,1.9c1.3,1.2,2.1,2.9,2.1,4.6
	c0,1.8-0.7,3.5-2.1,4.7c-1.3,1.3-3.1,2-4.9,1.9H74.7c-1.8,0-3.6-0.7-4.9-1.9c-1.3-1.2-2.1-2.9-2.1-4.8V24.4c0-1.8,0.7-3.4,2.1-4.6
	c1.3-1.3,3.1-2,4.9-1.9h35.4c1.8,0,3.6,0.7,4.9,1.9c2.5,2.3,2.8,6.2,0.5,8.7c-0.2,0.2-0.3,0.3-0.5,0.5c-1.3,1.3-3.1,2-4.9,1.9H84.3
	C83.6,30.9,83,31.2,82.4,31.6z"/>
<linearGradient id="SVGID_3_" gradientUnits="userSpaceOnUse" x1="379.78" y1="-264.8742" x2="636.71" y2="-264.8742" gradientTransform="matrix(1 0 0 -1 -371.92 -197.9602)">
	<stop  offset="0" style="stop-color:#7204FE"/>
	<stop  offset="1" style="stop-color:#DB00FF"/>
</linearGradient>
<path class="st3" d="M146.2,33c-1.8,1.1-3.1,2.7-4,4.5c-0.6,1.3-0.9,2.6-0.8,4c0,1.5,0.3,3,1,4.4c0.7,1.8,1.7,3.5,3,5
	c1.4,1.8,2.9,3.4,4.6,4.9c1.9,1.7,4.3,3.8,7.1,6.1c1.2,1,2.6,2.1,4.1,3.3c1.5,1.2,3,2.6,4.3,4c1.4,1.3,2.7,2.6,3.9,4.1
	c1.1,1.3,2.1,2.6,3.1,3.8c1.4,1.8,2.5,3.9,3.3,6c1.3,3,2,6.1,2,9.4c0,4.7-1.6,9.3-4.4,13.1c-2.8,3.8-6.6,6.8-11,8.6
	c-3.1,1.2-6.4,1.9-9.7,1.9c-5,0-9.9-1.4-14.1-4.1c-4-2.5-7.2-6-9.1-10.3c-1.2-2.9-1.9-6-1.9-9.1c0-1.8,0.7-3.5,2.1-4.8
	c2.8-2.6,7.1-2.6,9.9,0c1.3,1.2,2.1,2.9,2.1,4.8c0,2.1,0.7,4.1,1.9,5.8c1.3,1.6,2.9,2.9,4.8,3.7c1.4,0.5,2.9,0.8,4.4,0.8
	c2.2,0,4.3-0.6,6.2-1.7c1.7-1.1,3.1-2.7,4-4.5c0.6-1.3,0.9-2.7,0.9-4.1c0-1.5-0.3-3-1-4.4c-0.7-1.7-1.7-3.4-2.9-4.8
	c-1.5-1.7-3-3.4-4.7-5c-1.9-1.8-4.3-3.8-7.2-6.1l-5.5-4.6c-1.9-1.5-3.6-3.2-5.2-5c-3.4-3.2-6.1-7.1-8-11.4c-1.3-3-2-6.1-2-9.4
	c0-2.4,0.4-4.7,1.1-7c0.8-2.2,1.8-4.3,3.1-6.3c2.9-3.8,6.7-6.7,11.1-8.4c3.1-1.3,6.4-1.9,9.7-1.9c5-0.1,9.9,1.3,14.1,4
	c3.9,2.5,7.1,6.1,9.2,10.3c1.3,2.9,1.9,6.1,1.9,9.2c0,1.8-0.7,3.4-2.1,4.6c-2.8,2.6-7.1,2.6-9.9,0c-1.3-1.2-2.1-2.8-2.1-4.6
	c0-2.1-0.7-4.2-1.8-5.9c-1.3-1.7-3-3-5-3.7c-1.4-0.5-2.8-0.8-4.3-0.8C150.1,31.1,148,31.7,146.2,33z"/>
<linearGradient id="SVGID_4_" gradientUnits="userSpaceOnUse" x1="379.78" y1="-264.7799" x2="636.71" y2="-264.7799" gradientTransform="matrix(1 0 0 -1 -371.92 -197.9602)">
	<stop  offset="0" style="stop-color:#7204FE"/>
	<stop  offset="1" style="stop-color:#DB00FF"/>
</linearGradient>
<path class="st4" d="M210.1,115.9c-1.8,0-3.6-0.7-4.9-2c-1.3-1.2-2.1-2.9-2.1-4.7v-76c0-0.7-0.2-1.3-0.7-1.7
	c-0.5-0.5-1.2-0.7-1.8-0.7h-13.3c-1.8,0-3.6-0.7-4.9-1.9c-2.5-2.3-2.8-6.2-0.5-8.7c0.2-0.2,0.3-0.3,0.5-0.5c1.3-1.3,3.1-2,4.9-1.9
	h45.6c1.8,0,3.6,0.7,4.9,1.9c2.5,2.3,2.8,6.2,0.5,8.7c-0.2,0.2-0.3,0.3-0.5,0.5c-1.3,1.3-3.1,2-4.9,1.9h-13.2
	c-0.7,0-1.3,0.2-1.8,0.7c-0.4,0.5-0.7,1.1-0.6,1.7v76c0,1.8-0.8,3.5-2.2,4.7C213.7,115.2,211.9,115.9,210.1,115.9z"/>
<linearGradient id="SVGID_5_" gradientUnits="userSpaceOnUse" x1="379.78" y1="-264.9152" x2="636.71" y2="-264.9152" gradientTransform="matrix(1 0 0 -1 -371.92 -197.9602)">
	<stop  offset="0" style="stop-color:#7204FE"/>
	<stop  offset="1" style="stop-color:#DB00FF"/>
</linearGradient>
<path class="st5" d="M262.7,114c-2.8,2.6-7.1,2.6-9.9,0c-1.3-1.2-2.1-2.9-2.1-4.8V24.5c0-1.8,0.7-3.5,2.1-4.6c2.8-2.6,7.1-2.6,9.9,0
	c1.3,1.2,2.1,2.9,2.1,4.6v84.7C264.8,111,264.1,112.8,262.7,114z"/>
<g class="st0">
	<path class="st6" d="M294.6,38.7c-0.8,1.6-1.1,3.2-1.1,4.8V90c0,2.4,0.8,4.8,2.3,7.1c1.7,2.1,3.7,3.7,6,4.5
		c1.4,0.6,3.2,0.9,5.3,0.9c2.8,0,5.2-0.7,7.4-2.1c2.2-1.3,3.8-3.2,4.9-5.5c0.8-1.7,1.1-3.3,1.1-5v-7.9c0-0.6-0.2-1.2-0.7-1.6
		c-0.5-0.4-1.1-0.7-1.9-0.7h-6.2c-1.9,0-3.6-0.6-4.9-1.9c-1.4-1.3-2.1-2.9-2.1-4.7c0-1.8,0.7-3.3,2.1-4.6c1.4-1.3,3-1.9,4.9-1.9
		h15.7c2,0,3.7,0.7,5,2c1.3,1.2,2,2.8,2,4.5V90c0,5.4-1.6,10.2-4.7,14.4c-3.1,4.2-7.1,7.3-12,9.4c-3.4,1.3-7,2-10.7,2
		c-5.5,0-10.7-1.5-15.5-4.4c-2.2-1.4-4.2-3.1-5.9-5c-1.7-1.9-3.1-4-4.2-6.4c-1.4-3.2-2.1-6.6-2.1-10V43.5c0-2.6,0.4-5.1,1.1-7.6
		c0.8-2.5,2-4.7,3.6-6.8c3.1-4.4,7.1-7.5,12.2-9.4c3.2-1.3,6.8-2,10.6-2h0.1c5.6,0,10.7,1.5,15.3,4.4c2.2,1.4,4.2,3.1,5.9,4.9
		c1.7,1.9,3.1,4,4.2,6.3c1.4,3.2,2.1,6.6,2.1,10c0,1.8-0.7,3.3-2.1,4.7c-1.4,1.3-3,2-4.9,2c-1.9,0-3.6-0.7-4.9-2
		c-1.4-1.3-2.1-2.9-2.1-4.7c0-2.3-0.8-4.6-2.3-7c-1.7-2.1-3.7-3.7-6-4.5c-1.7-0.7-3.4-1.1-5.2-1.1c-1.4,0-2.8,0.2-4,0.5
		c-1.2,0.4-2.4,0.9-3.6,1.6C297.2,34.4,295.6,36.3,294.6,38.7z"/>
	<path class="st6" d="M399.9,61.2c-0.7,1-1.4,1.9-2.2,2.8c-0.8,0.9-1.6,1.7-2.5,2.4c-0.5,0.4-0.8,1-0.9,1.6c-0.1,0.6,0,1.2,0.4,1.6
		c2.7,3.3,4.3,6.9,4.9,10.8c0.3,1.6,0.6,3.5,0.9,5.7c0.3,2.2,0.7,4.5,1,6.8c0.3,2.4,0.7,4.6,1,6.8c0.3,2.2,0.6,4,0.9,5.4l0.4,3.1
		c0.3,1.8-0.2,3.4-1.4,4.9c-1.2,1.5-2.7,2.3-4.7,2.6c-0.2,0.1-0.5,0.1-1,0.1c-1.7,0-3.2-0.5-4.6-1.6c-1.3-1.1-2.1-2.5-2.4-4.1
		c0-0.1-0.2-1.2-0.5-3.4c-0.3-2.2-0.7-4.8-1.1-7.8c-0.4-3-0.9-6-1.4-9.1c-0.5-3.1-0.9-5.6-1.1-7.6c-0.5-2.6-1.7-4.7-3.7-6.3
		c-2.1-1.7-4.5-2.5-7.2-2.5h-9.4c-0.8,0-1.4,0.2-1.9,0.7c-0.5,0.4-0.7,1-0.7,1.7v33.3c0,1.9-0.7,3.5-2.1,4.7c-1.4,1.3-3,1.9-4.9,1.9
		c-2,0-3.7-0.6-5.1-1.9c-1.4-1.3-2.1-2.9-2.1-4.7V24.5c0-1.8,0.7-3.3,2.1-4.7c1.3-1.2,3-1.9,5-1.9h19.5c6.1,0,11.6,1.6,16.6,4.7
		c5,3.1,8.6,7.2,10.9,12.2c0.8,1.8,1.3,3.6,1.7,5.4c0.4,1.8,0.6,3.6,0.6,5.5C405.1,51.5,403.4,56.7,399.9,61.2z M389.8,51.4
		c0.8-2,1.1-3.9,1.1-5.8c0-2.9-0.9-5.6-2.6-8.2c-1.8-2.4-4.1-4.1-6.9-5.2c-2-0.8-4.1-1.2-6.2-1.2h-9.9c-0.8,0-1.4,0.2-1.9,0.7
		c-0.5,0.4-0.7,1-0.7,1.7V58c0,0.6,0.2,1.2,0.7,1.6c0.5,0.4,1.1,0.7,1.9,0.7h9.4h0.1h0.1h0.1c3.2,0,6.2-0.8,8.7-2.4
		C386.7,56.3,388.6,54.1,389.8,51.4z"/>
	<path class="st6" d="M418,115.8c-1.9-0.3-3.4-1.2-4.4-2.8c-1.2-1.4-1.6-3-1.1-4.8c2.8-14.1,5.2-26.8,7.4-38.1
		c1-4.8,1.9-9.5,2.8-14.2c0.9-4.6,1.7-8.8,2.4-12.5c0.7-3.7,1.3-6.7,1.8-9.1c0.5-2.4,0.8-3.7,0.9-3.9c0.8-3.7,2.6-6.6,5.6-8.8
		c3-2.3,6.3-3.5,10.2-3.5c3.9,0,7.3,1.2,10.3,3.5c3,2.2,4.8,5.2,5.6,8.8c0,0.3,0.2,1.6,0.7,3.9c0.5,2.3,1.1,5.3,1.8,9
		c0.7,3.7,1.5,7.9,2.4,12.5c0.9,4.6,1.8,9.4,2.8,14.2c2.2,11.3,4.7,24.1,7.6,38.3c0.5,1.8,0.1,3.4-1.1,4.8c-1.1,1.6-2.5,2.5-4.4,2.8
		c-0.3,0.1-0.7,0.1-1.3,0.1c-1.7,0-3.2-0.5-4.5-1.5c-1.3-1-2.1-2.3-2.5-3.9l-4.4-22.3c-0.2-1.2-1-1.9-2.4-1.9h-20.8
		c-1.4,0-2.3,0.6-2.6,1.9l-4.3,22.3c-0.4,1.6-1.2,2.9-2.5,3.9c-1.3,1-2.8,1.5-4.5,1.5C418.7,115.9,418.2,115.9,418,115.8z
		 M434.1,70.3c-0.1,0.6,0.1,1.2,0.6,1.9c0.4,0.5,1,0.8,1.9,0.8h13.7c0.9,0,1.5-0.3,2-0.8c0.5-0.6,0.7-1.2,0.6-1.9
		c-0.8-3.7-1.5-7.2-2.1-10.8c-0.7-3.5-1.3-6.8-1.9-9.9c-0.6-3.1-1.2-5.8-1.6-8.3c-0.5-2.5-0.9-4.4-1.1-6c-0.4-1.2-1.2-1.9-2.6-1.9
		c-1.3,0-2.1,0.6-2.4,1.9c-0.3,1.5-0.7,3.5-1.1,6c-0.5,2.5-1,5.2-1.6,8.3c-0.6,3.1-1.3,6.4-2,9.9C435.5,63.1,434.8,66.6,434.1,70.3z
		"/>
	<path class="st6" d="M542.9,115.9c-1.9,0-3.6-0.6-4.9-1.9c-1.4-1.3-2.1-2.9-2.1-4.7V62.4c0-0.7-0.4-1.2-1.1-1.3h-0.4
		c-0.6,0-1,0.3-1.3,0.8l-9.7,20.5c-0.6,1.2-1.4,2.1-2.6,2.8c-1.1,0.7-2.4,1.1-3.9,1.1c-1.3,0-2.6-0.4-3.8-1.1
		c-1.2-0.7-2.1-1.6-2.6-2.8l-9.6-20.5c-0.3-0.7-0.9-1-1.7-0.8c-0.8,0.2-1.1,0.6-1.1,1.3v46.8c0,1.9-0.7,3.5-2.1,4.7
		c-1.4,1.3-3.1,1.9-5,1.9c-1.9,0-3.6-0.6-4.9-1.9c-1.4-1.3-2.1-2.9-2.1-4.7V24.5c0-1.6,0.5-3,1.6-4.1c1-1.2,2.4-1.9,4-2.3
		c0.3-0.1,0.8-0.1,1.4-0.1c3.1,0,5.2,1.3,6.4,3.9l18.3,38.5c0.1,0.5,0.5,0.8,1.3,0.8c0.7,0,1.1-0.3,1.4-0.8l18.2-38.5
		c0.6-1.2,1.5-2.2,2.6-2.9c1.2-0.7,2.5-1,3.8-1c0.7,0,1.1,0,1.4,0.1c1.6,0.4,3,1.1,4.1,2.3c1.1,1.2,1.6,2.5,1.6,4.1v84.7
		c0,1.9-0.7,3.5-2.1,4.7C546.5,115.3,544.8,115.9,542.9,115.9z"/>
</g>
</svg>
