<svg id="Capa_1" data-name="Capa 1" xmlns="http://www.w3.org/2000/svg" xmlns:xlink="http://www.w3.org/1999/xlink" viewBox="0 0 557.46 129.3"><defs><style>.cls-1,.cls-5{font-size:133.78px;font-family:FVAlmelo, FV Almelo;}.cls-2{letter-spacing:0em;}.cls-3{letter-spacing:-0.04em;}.cls-4{fill:url(#Degradado_sin_nombre_32);}.cls-5{fill:#fff;}</style><linearGradient id="Degradado_sin_nombre_32" x1="379.78" y1="394.67" x2="636.71" y2="394.67" gradientUnits="userSpaceOnUse"><stop offset="0" stop-color="#7204fe"/><stop offset="1" stop-color="#db00ff"/></linearGradient></defs><text class="cls-1" transform="translate(0 115.92) scale(1.07 1)">F<tspan class="cls-2" x="56.05" y="0">E</tspan><tspan class="cls-3" x="113.18" y="0">S</tspan><tspan x="165.89" y="0">TI</tspan></text><path class="cls-4" d="M394.57,359.49a2.41,2.41,0,0,0-.64,1.74v24.48c0,1.52.8,2.27,2.43,2.27h18.72a7,7,0,0,1,4.92,1.94,6.28,6.28,0,0,1,2.08,4.75,6.12,6.12,0,0,1-2.08,4.62,7,7,0,0,1-4.92,1.94H396.36a2.35,2.35,0,0,0-1.79.67,2.4,2.4,0,0,0-.64,1.74V437a6.17,6.17,0,0,1-2.15,4.75,7.22,7.22,0,0,1-5,1.94,7,7,0,0,1-4.93-1.94,6.26,6.26,0,0,1-2.07-4.75V352.26a6.1,6.1,0,0,1,2.07-4.61,7,7,0,0,1,4.93-1.94h35.44a7,7,0,0,1,4.93,1.94,6.18,6.18,0,0,1,0,9.23,7,7,0,0,1-4.93,1.94H396.36A2.35,2.35,0,0,0,394.57,359.49Z" transform="translate(-371.92 -327.85)"/><path class="cls-4" d="M454.37,359.49a2.27,2.27,0,0,0-.71,1.74v24.48a2,2,0,0,0,.71,1.67,2.79,2.79,0,0,0,1.86.6H475a7,7,0,0,1,4.93,1.94,6.27,6.27,0,0,1,2.07,4.75,6.11,6.11,0,0,1-2.07,4.62,7,7,0,0,1-4.93,1.94H456.23a2.59,2.59,0,0,0-1.86.67,2.26,2.26,0,0,0-.71,1.74v24.48a2.09,2.09,0,0,0,.71,1.6,2.59,2.59,0,0,0,1.86.67h25.86a7,7,0,0,1,4.93,1.94,6.14,6.14,0,0,1,2.07,4.62A6.26,6.26,0,0,1,487,441.7a7,7,0,0,1-4.93,1.94H446.65a7,7,0,0,1-4.93-1.94,6.26,6.26,0,0,1-2.07-4.75V352.26a6.1,6.1,0,0,1,2.07-4.61,7,7,0,0,1,4.93-1.94h35.44a7,7,0,0,1,4.93,1.94,6.18,6.18,0,0,1,0,9.23,7,7,0,0,1-4.93,1.94H456.23A2.59,2.59,0,0,0,454.37,359.49Z" transform="translate(-371.92 -327.85)"/><path class="cls-4" d="M518.1,360.83a10.51,10.51,0,0,0-4,4.55,9.52,9.52,0,0,0-.85,4,9.69,9.69,0,0,0,1,4.41,18.57,18.57,0,0,0,3,4.95,36.08,36.08,0,0,0,4.57,4.89c1.9,1.74,4.29,3.77,7.14,6.08q1.86,1.48,4.08,3.28a58.6,58.6,0,0,1,4.35,3.95,48.57,48.57,0,0,1,3.93,4.08c1.1,1.29,2.12,2.56,3.08,3.81a25,25,0,0,1,3.28,6,24.25,24.25,0,0,1,2,9.37,21.62,21.62,0,0,1-4.43,13.11,26.2,26.2,0,0,1-11,8.56,26.83,26.83,0,0,1-9.72,1.87,25.5,25.5,0,0,1-14.14-4.15,24,24,0,0,1-9.15-10.3,22.54,22.54,0,0,1-1.86-9.09,6.22,6.22,0,0,1,2.08-4.75,7.23,7.23,0,0,1,9.86,0,6.24,6.24,0,0,1,2.07,4.75,10.3,10.3,0,0,0,1.86,5.75,12.07,12.07,0,0,0,4.85,3.74,12.45,12.45,0,0,0,4.43.81,11.15,11.15,0,0,0,6.15-1.74,11.63,11.63,0,0,0,4-4.55,10.5,10.5,0,0,0,.86-4.15,9.85,9.85,0,0,0-1-4.41,18.94,18.94,0,0,0-2.86-4.82,58.86,58.86,0,0,0-4.65-4.95q-2.78-2.67-7.21-6.15l-5.5-4.62a52.7,52.7,0,0,1-5.22-5,36.66,36.66,0,0,1-8-11.37,24.2,24.2,0,0,1-2-9.36,21.43,21.43,0,0,1,1.14-7,26.43,26.43,0,0,1,3.14-6.29,25.69,25.69,0,0,1,11.15-8.42,24.66,24.66,0,0,1,9.72-1.88,25.68,25.68,0,0,1,14.14,4,25.22,25.22,0,0,1,9.15,10.3,22.89,22.89,0,0,1,1.86,9.23,6.1,6.1,0,0,1-2.07,4.61,7.23,7.23,0,0,1-9.86,0,6.08,6.08,0,0,1-2.08-4.61,10.6,10.6,0,0,0-1.85-5.89,11.94,11.94,0,0,0-5-3.74,11.37,11.37,0,0,0-4.29-.81A11,11,0,0,0,518.1,360.83Z" transform="translate(-371.92 -327.85)"/><path class="cls-4" d="M582,443.77a6.86,6.86,0,0,1-4.93-2,6.33,6.33,0,0,1-2.07-4.69v-76a2.28,2.28,0,0,0-.72-1.74,2.6,2.6,0,0,0-1.85-.66H559.12a7,7,0,0,1-4.93-1.94,6.18,6.18,0,0,1,0-9.23,6.93,6.93,0,0,1,4.93-1.94H604.7a6.93,6.93,0,0,1,4.93,1.94,6.18,6.18,0,0,1,0,9.23,7,7,0,0,1-4.93,1.94H591.55a2.37,2.37,0,0,0-1.78.66,2.41,2.41,0,0,0-.64,1.74v76a6.24,6.24,0,0,1-2.15,4.69A7.11,7.11,0,0,1,582,443.77Z" transform="translate(-371.92 -327.85)"/><path class="cls-4" d="M634.64,441.83a7.23,7.23,0,0,1-9.86,0,6.21,6.21,0,0,1-2.07-4.75V352.4a6.09,6.09,0,0,1,2.07-4.62,7.23,7.23,0,0,1,9.86,0,6.12,6.12,0,0,1,2.07,4.62v84.68A6.24,6.24,0,0,1,634.64,441.83Z" transform="translate(-371.92 -327.85)"/><text class="cls-5" transform="translate(272.38 115.92) scale(1.07 1)">GRAM</text></svg>