<?xml version="1.0" encoding="utf-8"?>
<!-- Generator: Adobe Illustrator 25.2.1, SVG Export Plug-In . SVG Version: 6.00 Build 0)  -->
<svg version="1.1" id="Capa_2" xmlns="http://www.w3.org/2000/svg" xmlns:xlink="http://www.w3.org/1999/xlink" x="0px" y="0px"
	 viewBox="0 0 24 24" style="enable-background:new 0 0 24 24;" xml:space="preserve">
<style type="text/css">
	.st0{fill:#FFFFFF;}
</style>
<g id="More__x28_æ_x9B__xB4_å_xA4__x9A__x29_">
	<path id="Vector" class="st0" d="M5.7,13.5c0.8,0,1.5-0.7,1.5-1.5s-0.7-1.5-1.5-1.5S4.2,11.2,4.2,12S4.9,13.5,5.7,13.5z"/>
	<path id="Vector_2" class="st0" d="M11.7,13.5c0.8,0,1.5-0.7,1.5-1.5s-0.7-1.5-1.5-1.5s-1.5,0.7-1.5,1.5S10.9,13.5,11.7,13.5z"/>
	<path id="Vector_3" class="st0" d="M17.7,13.5c0.8,0,1.5-0.7,1.5-1.5s-0.7-1.5-1.5-1.5s-1.5,0.7-1.5,1.5S16.9,13.5,17.7,13.5z"/>
</g>
</svg>
