<?xml version="1.0" encoding="utf-8"?>
<!-- Generator: Adobe Illustrator 25.2.1, SVG Export Plug-In . SVG Version: 6.00 Build 0)  -->
<svg version="1.1" id="Capa_1" xmlns="http://www.w3.org/2000/svg" xmlns:xlink="http://www.w3.org/1999/xlink" x="0px" y="0px"
	 viewBox="0 0 34 46" style="enable-background:new 0 0 34 46;" xml:space="preserve">
<style type="text/css">
	.st0{fill:#FFFFFF;}
</style>
<g id="usuario_x2F__unselect">
	<path id="Vector" class="st0" d="M32.5,27.7c0,0,0.1-0.4-0.7-2.2c-0.8-1.8-1.9-3.4-3.4-4.7c-1.4-1.4-3.1-2.4-5-3.2
		c-1.9-0.7-3.9-1.1-5.9-1.1s-4.1,0.4-5.9,1.1c-1.9,0.7-3.6,1.8-5,3.2c-1.4,1.4-2.8,3-3.6,4.7C2.1,27.2,2,27.7,2,27.7h15.5H32.5z"/>
	<path id="Vector_2" class="st0" d="M23.9,8.8c0,4.2-3.1,7.6-6.8,7.6c-3.7,0-6.8-3.3-6.8-7.6c0-4.2,3.1-7.6,6.8-7.6
		C20.8,1.2,23.9,4.5,23.9,8.8z"/>
</g>
</svg>
